<svg xmlns="http://www.w3.org/2000/svg" version="1.1" xmlns:xlink="http://www.w3.org/1999/xlink" xmlns:svgjs="http://svgjs.com/svgjs" width="1440" height="900" preserveAspectRatio="none" viewBox="0 0 1440 900"><g mask="url(&quot;#SvgjsMask1002&quot;)" fill="none"><rect width="1440" height="900" x="0" y="0" fill="rgba(27, 32, 43, 1)"></rect><path d="M-79.09 539.59L-79.09 539.59" stroke="rgba(0, 74, 225, 1)" stroke-width="1.5"></path><path d="M-79.09 539.59L-58.05 663.91" stroke="rgba(0, 74, 225, 1)" stroke-width="1.5"></path><path d="M-79.09 539.59L110.69 690.32" stroke="rgba(0, 74, 225, 1)" stroke-width="1.5"></path><path d="M-79.09 539.59L-93.02 833.66" stroke="rgba(0, 74, 225, 1)" stroke-width="1.5"></path><path d="M-79.09 539.59L234 552.34" stroke="rgba(0, 74, 225, 1)" stroke-width="1.5"></path><path d="M-79.09 539.59L249.24 664.14" stroke="rgba(0, 74, 225, 1)" stroke-width="1.5"></path><path d="M-79.09 539.59L222.8 817.94" stroke="rgba(0, 74, 225, 1)" stroke-width="1.5"></path><path d="M-58.05 663.91L-58.05 663.91" stroke="rgba(0, 74, 225, 1)" stroke-width="1.5"></path><path d="M-58.05 663.91L110.69 690.32" stroke="rgba(0, 74, 225, 1)" stroke-width="1.5"></path><path d="M-58.05 663.91L-93.02 833.66" stroke="rgba(0, 74, 225, 1)" stroke-width="1.5"></path><path d="M-93.02 833.66L-93.02 833.66" stroke="rgba(0, 74, 225, 1)" stroke-width="1.5"></path><path d="M-93.02 833.66L-43.69 984.16" stroke="rgba(0, 74, 225, 1)" stroke-width="1.5"></path><path d="M-93.02 833.66L52.95 947.87" stroke="rgba(0, 74, 225, 1)" stroke-width="1.5"></path><path d="M-93.02 833.66L110.69 690.32" stroke="rgba(0, 74, 225, 1)" stroke-width="1.5"></path><path d="M-93.02 833.66L222.8 817.94" stroke="rgba(0, 74, 225, 1)" stroke-width="1.5"></path><path d="M-43.69 984.16L-43.69 984.16" stroke="rgba(0, 74, 225, 1)" stroke-width="1.5"></path><path d="M-43.69 984.16L52.95 947.87" stroke="rgba(0, 74, 225, 1)" stroke-width="1.5"></path><path d="M110.69 690.32L110.69 690.32" stroke="rgba(0, 74, 225, 1)" stroke-width="1.5"></path><path d="M110.69 690.32L249.24 664.14" stroke="rgba(0, 74, 225, 1)" stroke-width="1.5"></path><path d="M110.69 690.32L222.8 817.94" stroke="rgba(0, 74, 225, 1)" stroke-width="1.5"></path><path d="M110.69 690.32L234 552.34" stroke="rgba(0, 74, 225, 1)" stroke-width="1.5"></path><path d="M110.69 690.32L356.51 653.31" stroke="rgba(0, 74, 225, 1)" stroke-width="1.5"></path><path d="M52.95 947.87L52.95 947.87" stroke="rgba(0, 74, 225, 1)" stroke-width="1.5"></path><path d="M52.95 947.87L239.32 952.59" stroke="rgba(0, 74, 225, 1)" stroke-width="1.5"></path><path d="M234 552.34L234 552.34" stroke="rgba(0, 74, 225, 1)" stroke-width="1.5"></path><path d="M234 552.34L249.24 664.14" stroke="rgba(0, 74, 225, 1)" stroke-width="1.5"></path><path d="M234 552.34L356.51 653.31" stroke="rgba(0, 74, 225, 1)" stroke-width="1.5"></path><path d="M234 552.34L400.05 549.36" stroke="rgba(0, 74, 225, 1)" stroke-width="1.5"></path><path d="M234 552.34L222.8 817.94" stroke="rgba(0, 74, 225, 1)" stroke-width="1.5"></path><path d="M249.24 664.14L249.24 664.14" stroke="rgba(0, 74, 225, 1)" stroke-width="1.5"></path><path d="M249.24 664.14L356.51 653.31" stroke="rgba(0, 74, 225, 1)" stroke-width="1.5"></path><path d="M249.24 664.14L222.8 817.94" stroke="rgba(0, 74, 225, 1)" stroke-width="1.5"></path><path d="M222.8 817.94L222.8 817.94" stroke="rgba(0, 74, 225, 1)" stroke-width="1.5"></path><path d="M222.8 817.94L337.74 855.58" stroke="rgba(0, 74, 225, 1)" stroke-width="1.5"></path><path d="M222.8 817.94L239.32 952.59" stroke="rgba(0, 74, 225, 1)" stroke-width="1.5"></path><path d="M239.32 952.59L239.32 952.59" stroke="rgba(0, 74, 225, 1)" stroke-width="1.5"></path><path d="M400.05 549.36L400.05 549.36" stroke="rgba(0, 74, 225, 1)" stroke-width="1.5"></path><path d="M400.05 549.36L356.51 653.31" stroke="rgba(0, 74, 225, 1)" stroke-width="1.5"></path><path d="M400.05 549.36L532.97 541.42" stroke="rgba(0, 74, 225, 1)" stroke-width="1.5"></path><path d="M400.05 549.36L537.72 639.48" stroke="rgba(0, 74, 225, 1)" stroke-width="1.5"></path><path d="M356.51 653.31L356.51 653.31" stroke="rgba(0, 74, 225, 1)" stroke-width="1.5"></path><path d="M337.74 855.58L337.74 855.58" stroke="rgba(0, 74, 225, 1)" stroke-width="1.5"></path><path d="M337.74 855.58L239.32 952.59" stroke="rgba(0, 74, 225, 1)" stroke-width="1.5"></path><path d="M337.74 855.58L401.48 979.79" stroke="rgba(0, 74, 225, 1)" stroke-width="1.5"></path><path d="M337.74 855.58L499.96 838.7" stroke="rgba(0, 74, 225, 1)" stroke-width="1.5"></path><path d="M337.74 855.58L356.51 653.31" stroke="rgba(0, 74, 225, 1)" stroke-width="1.5"></path><path d="M337.74 855.58L249.24 664.14" stroke="rgba(0, 74, 225, 1)" stroke-width="1.5"></path><path d="M401.48 979.79L401.48 979.79" stroke="rgba(0, 74, 225, 1)" stroke-width="1.5"></path><path d="M401.48 979.79L491.52 1002.6" stroke="rgba(0, 74, 225, 1)" stroke-width="1.5"></path><path d="M401.48 979.79L239.32 952.59" stroke="rgba(0, 74, 225, 1)" stroke-width="1.5"></path><path d="M401.48 979.79L499.96 838.7" stroke="rgba(0, 74, 225, 1)" stroke-width="1.5"></path><path d="M532.97 541.42L532.97 541.42" stroke="rgba(0, 74, 225, 1)" stroke-width="1.5"></path><path d="M532.97 541.42L537.72 639.48" stroke="rgba(0, 74, 225, 1)" stroke-width="1.5"></path><path d="M532.97 541.42L679.17 551.18" stroke="rgba(0, 74, 225, 1)" stroke-width="1.5"></path><path d="M532.97 541.42L356.51 653.31" stroke="rgba(0, 74, 225, 1)" stroke-width="1.5"></path><path d="M532.97 541.42L661.25 707.11" stroke="rgba(0, 74, 225, 1)" stroke-width="1.5"></path><path d="M532.97 541.42L692.56 347.93" stroke="rgba(0, 74, 225, 1)" stroke-width="1.5"></path><path d="M537.72 639.48L537.72 639.48" stroke="rgba(0, 74, 225, 1)" stroke-width="1.5"></path><path d="M537.72 639.48L661.25 707.11" stroke="rgba(0, 74, 225, 1)" stroke-width="1.5"></path><path d="M537.72 639.48L679.17 551.18" stroke="rgba(0, 74, 225, 1)" stroke-width="1.5"></path><path d="M499.96 838.7L499.96 838.7" stroke="rgba(0, 74, 225, 1)" stroke-width="1.5"></path><path d="M499.96 838.7L648.37 836.43" stroke="rgba(0, 74, 225, 1)" stroke-width="1.5"></path><path d="M491.52 1002.6L491.52 1002.6" stroke="rgba(0, 74, 225, 1)" stroke-width="1.5"></path><path d="M491.52 1002.6L499.96 838.7" stroke="rgba(0, 74, 225, 1)" stroke-width="1.5"></path><path d="M491.52 1002.6L683.7 942.8" stroke="rgba(0, 74, 225, 1)" stroke-width="1.5"></path><path d="M692.56 347.93L692.56 347.93" stroke="rgba(0, 74, 225, 1)" stroke-width="1.5"></path><path d="M692.56 347.93L810.2 410.67" stroke="rgba(0, 74, 225, 1)" stroke-width="1.5"></path><path d="M692.56 347.93L811.85 255.91" stroke="rgba(0, 74, 225, 1)" stroke-width="1.5"></path><path d="M692.56 347.93L679.17 551.18" stroke="rgba(0, 74, 225, 1)" stroke-width="1.5"></path><path d="M692.56 347.93L798.05 536.47" stroke="rgba(0, 74, 225, 1)" stroke-width="1.5"></path><path d="M679.17 551.18L679.17 551.18" stroke="rgba(0, 74, 225, 1)" stroke-width="1.5"></path><path d="M679.17 551.18L798.05 536.47" stroke="rgba(0, 74, 225, 1)" stroke-width="1.5"></path><path d="M679.17 551.18L661.25 707.11" stroke="rgba(0, 74, 225, 1)" stroke-width="1.5"></path><path d="M679.17 551.18L819.75 658.08" stroke="rgba(0, 74, 225, 1)" stroke-width="1.5"></path><path d="M679.17 551.18L810.2 410.67" stroke="rgba(0, 74, 225, 1)" stroke-width="1.5"></path><path d="M661.25 707.11L661.25 707.11" stroke="rgba(0, 74, 225, 1)" stroke-width="1.5"></path><path d="M661.25 707.11L648.37 836.43" stroke="rgba(0, 74, 225, 1)" stroke-width="1.5"></path><path d="M661.25 707.11L819.75 658.08" stroke="rgba(0, 74, 225, 1)" stroke-width="1.5"></path><path d="M648.37 836.43L648.37 836.43" stroke="rgba(0, 74, 225, 1)" stroke-width="1.5"></path><path d="M648.37 836.43L683.7 942.8" stroke="rgba(0, 74, 225, 1)" stroke-width="1.5"></path><path d="M648.37 836.43L843.45 851.93" stroke="rgba(0, 74, 225, 1)" stroke-width="1.5"></path><path d="M648.37 836.43L537.72 639.48" stroke="rgba(0, 74, 225, 1)" stroke-width="1.5"></path><path d="M648.37 836.43L491.52 1002.6" stroke="rgba(0, 74, 225, 1)" stroke-width="1.5"></path><path d="M683.7 942.8L683.7 942.8" stroke="rgba(0, 74, 225, 1)" stroke-width="1.5"></path><path d="M683.7 942.8L833.64 972.12" stroke="rgba(0, 74, 225, 1)" stroke-width="1.5"></path><path d="M683.7 942.8L843.45 851.93" stroke="rgba(0, 74, 225, 1)" stroke-width="1.5"></path><path d="M683.7 942.8L499.96 838.7" stroke="rgba(0, 74, 225, 1)" stroke-width="1.5"></path><path d="M683.7 942.8L661.25 707.11" stroke="rgba(0, 74, 225, 1)" stroke-width="1.5"></path><path d="M811.85 255.91L811.85 255.91" stroke="rgba(0, 74, 225, 1)" stroke-width="1.5"></path><path d="M811.85 255.91L810.2 410.67" stroke="rgba(0, 74, 225, 1)" stroke-width="1.5"></path><path d="M811.85 255.91L1008.56 249.24" stroke="rgba(0, 74, 225, 1)" stroke-width="1.5"></path><path d="M811.85 255.91L989.67 401.6" stroke="rgba(0, 74, 225, 1)" stroke-width="1.5"></path><path d="M811.85 255.91L945.33 60.4" stroke="rgba(0, 74, 225, 1)" stroke-width="1.5"></path><path d="M811.85 255.91L798.05 536.47" stroke="rgba(0, 74, 225, 1)" stroke-width="1.5"></path><path d="M810.2 410.67L810.2 410.67" stroke="rgba(0, 74, 225, 1)" stroke-width="1.5"></path><path d="M810.2 410.67L798.05 536.47" stroke="rgba(0, 74, 225, 1)" stroke-width="1.5"></path><path d="M798.05 536.47L798.05 536.47" stroke="rgba(0, 74, 225, 1)" stroke-width="1.5"></path><path d="M798.05 536.47L819.75 658.08" stroke="rgba(0, 74, 225, 1)" stroke-width="1.5"></path><path d="M819.75 658.08L819.75 658.08" stroke="rgba(0, 74, 225, 1)" stroke-width="1.5"></path><path d="M819.75 658.08L955.96 706.52" stroke="rgba(0, 74, 225, 1)" stroke-width="1.5"></path><path d="M843.45 851.93L843.45 851.93" stroke="rgba(0, 74, 225, 1)" stroke-width="1.5"></path><path d="M843.45 851.93L833.64 972.12" stroke="rgba(0, 74, 225, 1)" stroke-width="1.5"></path><path d="M843.45 851.93L973.91 815.57" stroke="rgba(0, 74, 225, 1)" stroke-width="1.5"></path><path d="M843.45 851.93L955.96 706.52" stroke="rgba(0, 74, 225, 1)" stroke-width="1.5"></path><path d="M833.64 972.12L833.64 972.12" stroke="rgba(0, 74, 225, 1)" stroke-width="1.5"></path><path d="M989 -83.33L989 -83.33" stroke="rgba(0, 74, 225, 1)" stroke-width="1.5"></path><path d="M989 -83.33L1119.75 -105.66" stroke="rgba(0, 74, 225, 1)" stroke-width="1.5"></path><path d="M989 -83.33L945.33 60.4" stroke="rgba(0, 74, 225, 1)" stroke-width="1.5"></path><path d="M989 -83.33L1109.24 95.5" stroke="rgba(0, 74, 225, 1)" stroke-width="1.5"></path><path d="M989 -83.33L1288.65 -56.43" stroke="rgba(0, 74, 225, 1)" stroke-width="1.5"></path><path d="M989 -83.33L1253.02 73.24" stroke="rgba(0, 74, 225, 1)" stroke-width="1.5"></path><path d="M989 -83.33L1008.56 249.24" stroke="rgba(0, 74, 225, 1)" stroke-width="1.5"></path><path d="M945.33 60.4L945.33 60.4" stroke="rgba(0, 74, 225, 1)" stroke-width="1.5"></path><path d="M945.33 60.4L1109.24 95.5" stroke="rgba(0, 74, 225, 1)" stroke-width="1.5"></path><path d="M945.33 60.4L1008.56 249.24" stroke="rgba(0, 74, 225, 1)" stroke-width="1.5"></path><path d="M945.33 60.4L1119.75 -105.66" stroke="rgba(0, 74, 225, 1)" stroke-width="1.5"></path><path d="M945.33 60.4L1147.45 261.26" stroke="rgba(0, 74, 225, 1)" stroke-width="1.5"></path><path d="M1008.56 249.24L1008.56 249.24" stroke="rgba(0, 74, 225, 1)" stroke-width="1.5"></path><path d="M1008.56 249.24L1147.45 261.26" stroke="rgba(0, 74, 225, 1)" stroke-width="1.5"></path><path d="M1008.56 249.24L989.67 401.6" stroke="rgba(0, 74, 225, 1)" stroke-width="1.5"></path><path d="M989.67 401.6L989.67 401.6" stroke="rgba(0, 74, 225, 1)" stroke-width="1.5"></path><path d="M989.67 401.6L983.86 488.49" stroke="rgba(0, 74, 225, 1)" stroke-width="1.5"></path><path d="M989.67 401.6L1144.62 381.11" stroke="rgba(0, 74, 225, 1)" stroke-width="1.5"></path><path d="M989.67 401.6L1098.05 525.06" stroke="rgba(0, 74, 225, 1)" stroke-width="1.5"></path><path d="M989.67 401.6L810.2 410.67" stroke="rgba(0, 74, 225, 1)" stroke-width="1.5"></path><path d="M983.86 488.49L983.86 488.49" stroke="rgba(0, 74, 225, 1)" stroke-width="1.5"></path><path d="M983.86 488.49L1098.05 525.06" stroke="rgba(0, 74, 225, 1)" stroke-width="1.5"></path><path d="M983.86 488.49L810.2 410.67" stroke="rgba(0, 74, 225, 1)" stroke-width="1.5"></path><path d="M983.86 488.49L798.05 536.47" stroke="rgba(0, 74, 225, 1)" stroke-width="1.5"></path><path d="M983.86 488.49L1144.62 381.11" stroke="rgba(0, 74, 225, 1)" stroke-width="1.5"></path><path d="M955.96 706.52L955.96 706.52" stroke="rgba(0, 74, 225, 1)" stroke-width="1.5"></path><path d="M955.96 706.52L973.91 815.57" stroke="rgba(0, 74, 225, 1)" stroke-width="1.5"></path><path d="M955.96 706.52L1154.84 682.55" stroke="rgba(0, 74, 225, 1)" stroke-width="1.5"></path><path d="M955.96 706.52L1142.33 797.9" stroke="rgba(0, 74, 225, 1)" stroke-width="1.5"></path><path d="M955.96 706.52L983.86 488.49" stroke="rgba(0, 74, 225, 1)" stroke-width="1.5"></path><path d="M973.91 815.57L973.91 815.57" stroke="rgba(0, 74, 225, 1)" stroke-width="1.5"></path><path d="M973.91 815.57L1005.53 964.32" stroke="rgba(0, 74, 225, 1)" stroke-width="1.5"></path><path d="M1005.53 964.32L1005.53 964.32" stroke="rgba(0, 74, 225, 1)" stroke-width="1.5"></path><path d="M1005.53 964.32L1103.28 994.87" stroke="rgba(0, 74, 225, 1)" stroke-width="1.5"></path><path d="M1005.53 964.32L833.64 972.12" stroke="rgba(0, 74, 225, 1)" stroke-width="1.5"></path><path d="M1119.75 -105.66L1119.75 -105.66" stroke="rgba(0, 74, 225, 1)" stroke-width="1.5"></path><path d="M1119.75 -105.66L1288.65 -56.43" stroke="rgba(0, 74, 225, 1)" stroke-width="1.5"></path><path d="M1119.75 -105.66L1109.24 95.5" stroke="rgba(0, 74, 225, 1)" stroke-width="1.5"></path><path d="M1119.75 -105.66L1253.02 73.24" stroke="rgba(0, 74, 225, 1)" stroke-width="1.5"></path><path d="M1119.75 -105.66L1409.48 -85.55" stroke="rgba(0, 74, 225, 1)" stroke-width="1.5"></path><path d="M1109.24 95.5L1109.24 95.5" stroke="rgba(0, 74, 225, 1)" stroke-width="1.5"></path><path d="M1109.24 95.5L1253.02 73.24" stroke="rgba(0, 74, 225, 1)" stroke-width="1.5"></path><path d="M1147.45 261.26L1147.45 261.26" stroke="rgba(0, 74, 225, 1)" stroke-width="1.5"></path><path d="M1147.45 261.26L1144.62 381.11" stroke="rgba(0, 74, 225, 1)" stroke-width="1.5"></path><path d="M1144.62 381.11L1144.62 381.11" stroke="rgba(0, 74, 225, 1)" stroke-width="1.5"></path><path d="M1144.62 381.11L1251.29 397.46" stroke="rgba(0, 74, 225, 1)" stroke-width="1.5"></path><path d="M1144.62 381.11L1098.05 525.06" stroke="rgba(0, 74, 225, 1)" stroke-width="1.5"></path><path d="M1144.62 381.11L1008.56 249.24" stroke="rgba(0, 74, 225, 1)" stroke-width="1.5"></path><path d="M1098.05 525.06L1098.05 525.06" stroke="rgba(0, 74, 225, 1)" stroke-width="1.5"></path><path d="M1154.84 682.55L1154.84 682.55" stroke="rgba(0, 74, 225, 1)" stroke-width="1.5"></path><path d="M1154.84 682.55L1248.71 641.43" stroke="rgba(0, 74, 225, 1)" stroke-width="1.5"></path><path d="M1154.84 682.55L1142.33 797.9" stroke="rgba(0, 74, 225, 1)" stroke-width="1.5"></path><path d="M1154.84 682.55L1098.05 525.06" stroke="rgba(0, 74, 225, 1)" stroke-width="1.5"></path><path d="M1154.84 682.55L1289.47 828.37" stroke="rgba(0, 74, 225, 1)" stroke-width="1.5"></path><path d="M1142.33 797.9L1142.33 797.9" stroke="rgba(0, 74, 225, 1)" stroke-width="1.5"></path><path d="M1142.33 797.9L1289.47 828.37" stroke="rgba(0, 74, 225, 1)" stroke-width="1.5"></path><path d="M1103.28 994.87L1103.28 994.87" stroke="rgba(0, 74, 225, 1)" stroke-width="1.5"></path><path d="M1103.28 994.87L1258.74 995.52" stroke="rgba(0, 74, 225, 1)" stroke-width="1.5"></path><path d="M1103.28 994.87L1142.33 797.9" stroke="rgba(0, 74, 225, 1)" stroke-width="1.5"></path><path d="M1103.28 994.87L973.91 815.57" stroke="rgba(0, 74, 225, 1)" stroke-width="1.5"></path><path d="M1288.65 -56.43L1288.65 -56.43" stroke="rgba(0, 74, 225, 1)" stroke-width="1.5"></path><path d="M1288.65 -56.43L1409.48 -85.55" stroke="rgba(0, 74, 225, 1)" stroke-width="1.5"></path><path d="M1288.65 -56.43L1253.02 73.24" stroke="rgba(0, 74, 225, 1)" stroke-width="1.5"></path><path d="M1288.65 -56.43L1389.91 54.32" stroke="rgba(0, 74, 225, 1)" stroke-width="1.5"></path><path d="M1253.02 73.24L1253.02 73.24" stroke="rgba(0, 74, 225, 1)" stroke-width="1.5"></path><path d="M1253.02 73.24L1389.91 54.32" stroke="rgba(0, 74, 225, 1)" stroke-width="1.5"></path><path d="M1253.02 73.24L1287.19 236.87" stroke="rgba(0, 74, 225, 1)" stroke-width="1.5"></path><path d="M1253.02 73.24L1147.45 261.26" stroke="rgba(0, 74, 225, 1)" stroke-width="1.5"></path><path d="M1287.19 236.87L1287.19 236.87" stroke="rgba(0, 74, 225, 1)" stroke-width="1.5"></path><path d="M1287.19 236.87L1418.75 255.7" stroke="rgba(0, 74, 225, 1)" stroke-width="1.5"></path><path d="M1287.19 236.87L1147.45 261.26" stroke="rgba(0, 74, 225, 1)" stroke-width="1.5"></path><path d="M1287.19 236.87L1388.7 354.79" stroke="rgba(0, 74, 225, 1)" stroke-width="1.5"></path><path d="M1287.19 236.87L1251.29 397.46" stroke="rgba(0, 74, 225, 1)" stroke-width="1.5"></path><path d="M1287.19 236.87L1144.62 381.11" stroke="rgba(0, 74, 225, 1)" stroke-width="1.5"></path><path d="M1251.29 397.46L1251.29 397.46" stroke="rgba(0, 74, 225, 1)" stroke-width="1.5"></path><path d="M1251.29 397.46L1307.2 520.01" stroke="rgba(0, 74, 225, 1)" stroke-width="1.5"></path><path d="M1251.29 397.46L1388.7 354.79" stroke="rgba(0, 74, 225, 1)" stroke-width="1.5"></path><path d="M1251.29 397.46L1147.45 261.26" stroke="rgba(0, 74, 225, 1)" stroke-width="1.5"></path><path d="M1251.29 397.46L1098.05 525.06" stroke="rgba(0, 74, 225, 1)" stroke-width="1.5"></path><path d="M1307.2 520.01L1307.2 520.01" stroke="rgba(0, 74, 225, 1)" stroke-width="1.5"></path><path d="M1307.2 520.01L1248.71 641.43" stroke="rgba(0, 74, 225, 1)" stroke-width="1.5"></path><path d="M1307.2 520.01L1388.7 354.79" stroke="rgba(0, 74, 225, 1)" stroke-width="1.5"></path><path d="M1248.71 641.43L1248.71 641.43" stroke="rgba(0, 74, 225, 1)" stroke-width="1.5"></path><path d="M1248.71 641.43L1142.33 797.9" stroke="rgba(0, 74, 225, 1)" stroke-width="1.5"></path><path d="M1248.71 641.43L1098.05 525.06" stroke="rgba(0, 74, 225, 1)" stroke-width="1.5"></path><path d="M1289.47 828.37L1289.47 828.37" stroke="rgba(0, 74, 225, 1)" stroke-width="1.5"></path><path d="M1289.47 828.37L1422.33 814.28" stroke="rgba(0, 74, 225, 1)" stroke-width="1.5"></path><path d="M1289.47 828.37L1258.74 995.52" stroke="rgba(0, 74, 225, 1)" stroke-width="1.5"></path><path d="M1289.47 828.37L1421.01 949.21" stroke="rgba(0, 74, 225, 1)" stroke-width="1.5"></path><path d="M1289.47 828.37L1248.71 641.43" stroke="rgba(0, 74, 225, 1)" stroke-width="1.5"></path><path d="M1258.74 995.52L1258.74 995.52" stroke="rgba(0, 74, 225, 1)" stroke-width="1.5"></path><path d="M1258.74 995.52L1421.01 949.21" stroke="rgba(0, 74, 225, 1)" stroke-width="1.5"></path><path d="M1409.48 -85.55L1409.48 -85.55" stroke="rgba(0, 74, 225, 1)" stroke-width="1.5"></path><path d="M1409.48 -85.55L1389.91 54.32" stroke="rgba(0, 74, 225, 1)" stroke-width="1.5"></path><path d="M1389.91 54.32L1389.91 54.32" stroke="rgba(0, 74, 225, 1)" stroke-width="1.5"></path><path d="M1418.75 255.7L1418.75 255.7" stroke="rgba(0, 74, 225, 1)" stroke-width="1.5"></path><path d="M1418.75 255.7L1388.7 354.79" stroke="rgba(0, 74, 225, 1)" stroke-width="1.5"></path><path d="M1388.7 354.79L1388.7 354.79" stroke="rgba(0, 74, 225, 1)" stroke-width="1.5"></path><path d="M1444.72 683.89L1444.72 683.89" stroke="rgba(0, 74, 225, 1)" stroke-width="1.5"></path><path d="M1444.72 683.89L1422.33 814.28" stroke="rgba(0, 74, 225, 1)" stroke-width="1.5"></path><path d="M1444.72 683.89L1593.82 697.66" stroke="rgba(0, 74, 225, 1)" stroke-width="1.5"></path><path d="M1422.33 814.28L1422.33 814.28" stroke="rgba(0, 74, 225, 1)" stroke-width="1.5"></path><path d="M1422.33 814.28L1551.55 813.16" stroke="rgba(0, 74, 225, 1)" stroke-width="1.5"></path><path d="M1422.33 814.28L1421.01 949.21" stroke="rgba(0, 74, 225, 1)" stroke-width="1.5"></path><path d="M1421.01 949.21L1421.01 949.21" stroke="rgba(0, 74, 225, 1)" stroke-width="1.5"></path><path d="M1421.01 949.21L1582.92 1009.73" stroke="rgba(0, 74, 225, 1)" stroke-width="1.5"></path><path d="M1421.01 949.21L1551.55 813.16" stroke="rgba(0, 74, 225, 1)" stroke-width="1.5"></path><path d="M1421.01 949.21L1444.72 683.89" stroke="rgba(0, 74, 225, 1)" stroke-width="1.5"></path><path d="M1603.79 -69.93L1603.79 -69.93" stroke="rgba(0, 74, 225, 1)" stroke-width="1.5"></path><path d="M1603.79 -69.93L1588.49 86.7" stroke="rgba(0, 74, 225, 1)" stroke-width="1.5"></path><path d="M1603.79 -69.93L1409.48 -85.55" stroke="rgba(0, 74, 225, 1)" stroke-width="1.5"></path><path d="M1603.79 -69.93L1389.91 54.32" stroke="rgba(0, 74, 225, 1)" stroke-width="1.5"></path><path d="M1603.79 -69.93L1582.85 211.54" stroke="rgba(0, 74, 225, 1)" stroke-width="1.5"></path><path d="M1603.79 -69.93L1288.65 -56.43" stroke="rgba(0, 74, 225, 1)" stroke-width="1.5"></path><path d="M1588.49 86.7L1588.49 86.7" stroke="rgba(0, 74, 225, 1)" stroke-width="1.5"></path><path d="M1588.49 86.7L1582.85 211.54" stroke="rgba(0, 74, 225, 1)" stroke-width="1.5"></path><path d="M1582.85 211.54L1582.85 211.54" stroke="rgba(0, 74, 225, 1)" stroke-width="1.5"></path><path d="M1582.85 211.54L1590.59 369.53" stroke="rgba(0, 74, 225, 1)" stroke-width="1.5"></path><path d="M1590.59 369.53L1590.59 369.53" stroke="rgba(0, 74, 225, 1)" stroke-width="1.5"></path><path d="M1590.59 369.53L1570.89 491.99" stroke="rgba(0, 74, 225, 1)" stroke-width="1.5"></path><path d="M1590.59 369.53L1388.7 354.79" stroke="rgba(0, 74, 225, 1)" stroke-width="1.5"></path><path d="M1570.89 491.99L1570.89 491.99" stroke="rgba(0, 74, 225, 1)" stroke-width="1.5"></path><path d="M1570.89 491.99L1593.82 697.66" stroke="rgba(0, 74, 225, 1)" stroke-width="1.5"></path><path d="M1570.89 491.99L1388.7 354.79" stroke="rgba(0, 74, 225, 1)" stroke-width="1.5"></path><path d="M1570.89 491.99L1444.72 683.89" stroke="rgba(0, 74, 225, 1)" stroke-width="1.5"></path><path d="M1570.89 491.99L1307.2 520.01" stroke="rgba(0, 74, 225, 1)" stroke-width="1.5"></path><path d="M1570.89 491.99L1582.85 211.54" stroke="rgba(0, 74, 225, 1)" stroke-width="1.5"></path><path d="M1593.82 697.66L1593.82 697.66" stroke="rgba(0, 74, 225, 1)" stroke-width="1.5"></path><path d="M1593.82 697.66L1551.55 813.16" stroke="rgba(0, 74, 225, 1)" stroke-width="1.5"></path><path d="M1551.55 813.16L1551.55 813.16" stroke="rgba(0, 74, 225, 1)" stroke-width="1.5"></path><path d="M1582.92 1009.73L1582.92 1009.73" stroke="rgba(0, 74, 225, 1)" stroke-width="1.5"></path><path d="M1582.92 1009.73L1551.55 813.16" stroke="rgba(0, 74, 225, 1)" stroke-width="1.5"></path><path d="M1582.92 1009.73L1422.33 814.28" stroke="rgba(0, 74, 225, 1)" stroke-width="1.5"></path><path d="M1582.92 1009.73L1593.82 697.66" stroke="rgba(0, 74, 225, 1)" stroke-width="1.5"></path><circle r="5" cx="-79.09" cy="539.59" fill="rgba(0, 74, 225, 1)"></circle><circle r="5" cx="-58.05" cy="663.91" fill="rgba(0, 74, 225, 1)"></circle><circle r="5" cx="-93.02" cy="833.66" fill="rgba(0, 74, 225, 1)"></circle><circle r="5" cx="-43.69" cy="984.16" fill="rgba(0, 74, 225, 1)"></circle><circle r="5" cx="110.69" cy="690.32" fill="rgba(0, 74, 225, 1)"></circle><circle r="5" cx="52.95" cy="947.87" fill="rgba(0, 74, 225, 1)"></circle><circle r="5" cx="234" cy="552.34" fill="rgba(0, 74, 225, 1)"></circle><circle r="5" cx="249.24" cy="664.14" fill="rgba(0, 74, 225, 1)"></circle><circle r="5" cx="222.8" cy="817.94" fill="rgba(0, 74, 225, 1)"></circle><circle r="5" cx="239.32" cy="952.59" fill="rgba(0, 74, 225, 1)"></circle><circle r="5" cx="400.05" cy="549.36" fill="rgba(0, 74, 225, 1)"></circle><circle r="5" cx="356.51" cy="653.31" fill="rgba(0, 74, 225, 1)"></circle><circle r="5" cx="337.74" cy="855.58" fill="rgba(0, 74, 225, 1)"></circle><circle r="5" cx="401.48" cy="979.79" fill="rgba(0, 74, 225, 1)"></circle><circle r="5" cx="532.97" cy="541.42" fill="rgba(0, 74, 225, 1)"></circle><circle r="5" cx="537.72" cy="639.48" fill="rgba(0, 74, 225, 1)"></circle><circle r="5" cx="499.96" cy="838.7" fill="rgba(0, 74, 225, 1)"></circle><circle r="5" cx="491.52" cy="1002.6" fill="rgba(0, 74, 225, 1)"></circle><circle r="5" cx="692.56" cy="347.93" fill="rgba(0, 74, 225, 1)"></circle><circle r="5" cx="679.17" cy="551.18" fill="rgba(0, 74, 225, 1)"></circle><circle r="5" cx="661.25" cy="707.11" fill="rgba(0, 74, 225, 1)"></circle><circle r="5" cx="648.37" cy="836.43" fill="rgba(0, 74, 225, 1)"></circle><circle r="5" cx="683.7" cy="942.8" fill="rgba(0, 74, 225, 1)"></circle><circle r="5" cx="811.85" cy="255.91" fill="rgba(0, 74, 225, 1)"></circle><circle r="5" cx="810.2" cy="410.67" fill="rgba(0, 74, 225, 1)"></circle><circle r="5" cx="798.05" cy="536.47" fill="rgba(0, 74, 225, 1)"></circle><circle r="5" cx="819.75" cy="658.08" fill="rgba(0, 74, 225, 1)"></circle><circle r="5" cx="843.45" cy="851.93" fill="rgba(0, 74, 225, 1)"></circle><circle r="5" cx="833.64" cy="972.12" fill="rgba(0, 74, 225, 1)"></circle><circle r="5" cx="989" cy="-83.33" fill="rgba(0, 74, 225, 1)"></circle><circle r="5" cx="945.33" cy="60.4" fill="rgba(0, 74, 225, 1)"></circle><circle r="5" cx="1008.56" cy="249.24" fill="rgba(0, 74, 225, 1)"></circle><circle r="5" cx="989.67" cy="401.6" fill="rgba(0, 74, 225, 1)"></circle><circle r="5" cx="983.86" cy="488.49" fill="rgba(0, 74, 225, 1)"></circle><circle r="5" cx="955.96" cy="706.52" fill="rgba(0, 74, 225, 1)"></circle><circle r="5" cx="973.91" cy="815.57" fill="rgba(0, 74, 225, 1)"></circle><circle r="5" cx="1005.53" cy="964.32" fill="rgba(0, 74, 225, 1)"></circle><circle r="5" cx="1119.75" cy="-105.66" fill="rgba(0, 74, 225, 1)"></circle><circle r="5" cx="1109.24" cy="95.5" fill="rgba(0, 74, 225, 1)"></circle><circle r="5" cx="1147.45" cy="261.26" fill="rgba(0, 74, 225, 1)"></circle><circle r="5" cx="1144.62" cy="381.11" fill="rgba(0, 74, 225, 1)"></circle><circle r="5" cx="1098.05" cy="525.06" fill="rgba(0, 74, 225, 1)"></circle><circle r="5" cx="1154.84" cy="682.55" fill="rgba(0, 74, 225, 1)"></circle><circle r="5" cx="1142.33" cy="797.9" fill="rgba(0, 74, 225, 1)"></circle><circle r="5" cx="1103.28" cy="994.87" fill="rgba(0, 74, 225, 1)"></circle><circle r="5" cx="1288.65" cy="-56.43" fill="rgba(0, 74, 225, 1)"></circle><circle r="5" cx="1253.02" cy="73.24" fill="rgba(0, 74, 225, 1)"></circle><circle r="5" cx="1287.19" cy="236.87" fill="rgba(0, 74, 225, 1)"></circle><circle r="5" cx="1251.29" cy="397.46" fill="rgba(0, 74, 225, 1)"></circle><circle r="5" cx="1307.2" cy="520.01" fill="rgba(0, 74, 225, 1)"></circle><circle r="5" cx="1248.71" cy="641.43" fill="rgba(0, 74, 225, 1)"></circle><circle r="5" cx="1289.47" cy="828.37" fill="rgba(0, 74, 225, 1)"></circle><circle r="5" cx="1258.74" cy="995.52" fill="rgba(0, 74, 225, 1)"></circle><circle r="5" cx="1409.48" cy="-85.55" fill="rgba(0, 74, 225, 1)"></circle><circle r="5" cx="1389.91" cy="54.32" fill="rgba(0, 74, 225, 1)"></circle><circle r="5" cx="1418.75" cy="255.7" fill="rgba(0, 74, 225, 1)"></circle><circle r="5" cx="1388.7" cy="354.79" fill="rgba(0, 74, 225, 1)"></circle><circle r="5" cx="1444.72" cy="683.89" fill="rgba(0, 74, 225, 1)"></circle><circle r="5" cx="1422.33" cy="814.28" fill="rgba(0, 74, 225, 1)"></circle><circle r="5" cx="1421.01" cy="949.21" fill="rgba(0, 74, 225, 1)"></circle><circle r="5" cx="1603.79" cy="-69.93" fill="rgba(0, 74, 225, 1)"></circle><circle r="5" cx="1588.49" cy="86.7" fill="rgba(0, 74, 225, 1)"></circle><circle r="5" cx="1582.85" cy="211.54" fill="rgba(0, 74, 225, 1)"></circle><circle r="5" cx="1590.59" cy="369.53" fill="rgba(0, 74, 225, 1)"></circle><circle r="5" cx="1570.89" cy="491.99" fill="rgba(0, 74, 225, 1)"></circle><circle r="5" cx="1593.82" cy="697.66" fill="rgba(0, 74, 225, 1)"></circle><circle r="5" cx="1551.55" cy="813.16" fill="rgba(0, 74, 225, 1)"></circle><circle r="5" cx="1582.92" cy="1009.73" fill="rgba(0, 74, 225, 1)"></circle><path d="M191.11 861.31L191.11 861.31" stroke="hsl(0, 0%, 100%)" stroke-width="1.5"></path><path d="M191.11 861.31L222.99 943.14" stroke="hsl(0, 0%, 100%)" stroke-width="1.5"></path><path d="M191.11 861.31L107.4 952.39" stroke="hsl(0, 0%, 100%)" stroke-width="1.5"></path><path d="M1117.88 228.55L1117.88 228.55" stroke="hsl(0, 0%, 100%)" stroke-width="1.5"></path><path d="M1117.88 228.55L1114.5 364.8" stroke="hsl(0, 0%, 100%)" stroke-width="1.5"></path><path d="M1117.88 228.55L1304.56 244.71" stroke="hsl(0, 0%, 100%)" stroke-width="1.5"></path><path d="M1117.88 228.55L1276 387.78" stroke="hsl(0, 0%, 100%)" stroke-width="1.5"></path><path d="M1117.88 228.55L1296.9 62.01" stroke="hsl(0, 0%, 100%)" stroke-width="1.5"></path><path d="M1121.76 561.12L1121.76 561.12" stroke="hsl(0, 0%, 100%)" stroke-width="1.5"></path><path d="M1121.76 561.12L1010.91 537.06" stroke="hsl(0, 0%, 100%)" stroke-width="1.5"></path><path d="M1121.76 561.12L1110.39 686" stroke="hsl(0, 0%, 100%)" stroke-width="1.5"></path><path d="M1121.76 561.12L1249.15 648.48" stroke="hsl(0, 0%, 100%)" stroke-width="1.5"></path><path d="M1452.64 340.1L1452.64 340.1" stroke="hsl(0, 0%, 100%)" stroke-width="1.5"></path><path d="M1452.64 340.1L1557.22 368" stroke="hsl(0, 0%, 100%)" stroke-width="1.5"></path><path d="M1452.64 340.1L1414.7 204.08" stroke="hsl(0, 0%, 100%)" stroke-width="1.5"></path><path d="M1452.64 340.1L1440.61 513.7" stroke="hsl(0, 0%, 100%)" stroke-width="1.5"></path><path d="M1452.64 340.1L1304.56 244.71" stroke="hsl(0, 0%, 100%)" stroke-width="1.5"></path><path d="M1452.64 340.1L1276 387.78" stroke="hsl(0, 0%, 100%)" stroke-width="1.5"></path><path d="M1452.64 340.1L1557.58 492.65" stroke="hsl(0, 0%, 100%)" stroke-width="1.5"></path><path d="M1557.58 492.65L1557.58 492.65" stroke="hsl(0, 0%, 100%)" stroke-width="1.5"></path><path d="M1557.58 492.65L1440.61 513.7" stroke="hsl(0, 0%, 100%)" stroke-width="1.5"></path><path d="M1557.58 492.65L1557.22 368" stroke="hsl(0, 0%, 100%)" stroke-width="1.5"></path><path d="M1557.58 492.65L1612 703.28" stroke="hsl(0, 0%, 100%)" stroke-width="1.5"></path><path d="M1557.58 492.65L1439.41 700.9" stroke="hsl(0, 0%, 100%)" stroke-width="1.5"></path><path d="M-85.01 809.32L-85.01 809.32" stroke="hsl(0, 0%, 100%)" stroke-width="1.5"></path><path d="M-85.01 809.32L37.81 855.85" stroke="hsl(0, 0%, 100%)" stroke-width="1.5"></path><path d="M-85.01 809.32L-65.89 948.42" stroke="hsl(0, 0%, 100%)" stroke-width="1.5"></path><path d="M-85.01 809.32L107.4 952.39" stroke="hsl(0, 0%, 100%)" stroke-width="1.5"></path><path d="M-65.89 948.42L-65.89 948.42" stroke="hsl(0, 0%, 100%)" stroke-width="1.5"></path><path d="M-65.89 948.42L37.81 855.85" stroke="hsl(0, 0%, 100%)" stroke-width="1.5"></path><path d="M-65.89 948.42L107.4 952.39" stroke="hsl(0, 0%, 100%)" stroke-width="1.5"></path><path d="M-65.89 948.42L191.11 861.31" stroke="hsl(0, 0%, 100%)" stroke-width="1.5"></path><path d="M-65.89 948.42L222.99 943.14" stroke="hsl(0, 0%, 100%)" stroke-width="1.5"></path><path d="M37.81 855.85L37.81 855.85" stroke="hsl(0, 0%, 100%)" stroke-width="1.5"></path><path d="M37.81 855.85L107.4 952.39" stroke="hsl(0, 0%, 100%)" stroke-width="1.5"></path><path d="M107.4 952.39L107.4 952.39" stroke="hsl(0, 0%, 100%)" stroke-width="1.5"></path><path d="M107.4 952.39L222.99 943.14" stroke="hsl(0, 0%, 100%)" stroke-width="1.5"></path><path d="M222.99 943.14L222.99 943.14" stroke="hsl(0, 0%, 100%)" stroke-width="1.5"></path><path d="M222.99 943.14L394.75 1006.25" stroke="hsl(0, 0%, 100%)" stroke-width="1.5"></path><path d="M358.97 701.56L358.97 701.56" stroke="hsl(0, 0%, 100%)" stroke-width="1.5"></path><path d="M358.97 701.56L344.14 790.99" stroke="hsl(0, 0%, 100%)" stroke-width="1.5"></path><path d="M358.97 701.56L547.83 665.89" stroke="hsl(0, 0%, 100%)" stroke-width="1.5"></path><path d="M344.14 790.99L344.14 790.99" stroke="hsl(0, 0%, 100%)" stroke-width="1.5"></path><path d="M344.14 790.99L191.11 861.31" stroke="hsl(0, 0%, 100%)" stroke-width="1.5"></path><path d="M344.14 790.99L222.99 943.14" stroke="hsl(0, 0%, 100%)" stroke-width="1.5"></path><path d="M344.14 790.99L394.75 1006.25" stroke="hsl(0, 0%, 100%)" stroke-width="1.5"></path><path d="M394.75 1006.25L394.75 1006.25" stroke="hsl(0, 0%, 100%)" stroke-width="1.5"></path><path d="M394.75 1006.25L191.11 861.31" stroke="hsl(0, 0%, 100%)" stroke-width="1.5"></path><path d="M394.75 1006.25L107.4 952.39" stroke="hsl(0, 0%, 100%)" stroke-width="1.5"></path><path d="M394.75 1006.25L641.81 830.47" stroke="hsl(0, 0%, 100%)" stroke-width="1.5"></path><path d="M547.83 665.89L547.83 665.89" stroke="hsl(0, 0%, 100%)" stroke-width="1.5"></path><path d="M547.83 665.89L663.1 678.2" stroke="hsl(0, 0%, 100%)" stroke-width="1.5"></path><path d="M547.83 665.89L641.81 830.47" stroke="hsl(0, 0%, 100%)" stroke-width="1.5"></path><path d="M547.83 665.89L344.14 790.99" stroke="hsl(0, 0%, 100%)" stroke-width="1.5"></path><path d="M547.83 665.89L790.67 823.13" stroke="hsl(0, 0%, 100%)" stroke-width="1.5"></path><path d="M547.83 665.89L845.1 695.69" stroke="hsl(0, 0%, 100%)" stroke-width="1.5"></path><path d="M663.1 678.2L663.1 678.2" stroke="hsl(0, 0%, 100%)" stroke-width="1.5"></path><path d="M663.1 678.2L641.81 830.47" stroke="hsl(0, 0%, 100%)" stroke-width="1.5"></path><path d="M663.1 678.2L845.1 695.69" stroke="hsl(0, 0%, 100%)" stroke-width="1.5"></path><path d="M641.81 830.47L641.81 830.47" stroke="hsl(0, 0%, 100%)" stroke-width="1.5"></path><path d="M641.81 830.47L790.67 823.13" stroke="hsl(0, 0%, 100%)" stroke-width="1.5"></path><path d="M641.81 830.47L845.1 695.69" stroke="hsl(0, 0%, 100%)" stroke-width="1.5"></path><path d="M827.55 536.04L827.55 536.04" stroke="hsl(0, 0%, 100%)" stroke-width="1.5"></path><path d="M827.55 536.04L845.1 695.69" stroke="hsl(0, 0%, 100%)" stroke-width="1.5"></path><path d="M827.55 536.04L951 410.96" stroke="hsl(0, 0%, 100%)" stroke-width="1.5"></path><path d="M827.55 536.04L1010.91 537.06" stroke="hsl(0, 0%, 100%)" stroke-width="1.5"></path><path d="M827.55 536.04L663.1 678.2" stroke="hsl(0, 0%, 100%)" stroke-width="1.5"></path><path d="M827.55 536.04L790.67 823.13" stroke="hsl(0, 0%, 100%)" stroke-width="1.5"></path><path d="M827.55 536.04L1121.76 561.12" stroke="hsl(0, 0%, 100%)" stroke-width="1.5"></path><path d="M845.1 695.69L845.1 695.69" stroke="hsl(0, 0%, 100%)" stroke-width="1.5"></path><path d="M845.1 695.69L790.67 823.13" stroke="hsl(0, 0%, 100%)" stroke-width="1.5"></path><path d="M845.1 695.69L1003.34 819.88" stroke="hsl(0, 0%, 100%)" stroke-width="1.5"></path><path d="M845.1 695.69L1010.91 537.06" stroke="hsl(0, 0%, 100%)" stroke-width="1.5"></path><path d="M790.67 823.13L790.67 823.13" stroke="hsl(0, 0%, 100%)" stroke-width="1.5"></path><path d="M790.67 823.13L663.1 678.2" stroke="hsl(0, 0%, 100%)" stroke-width="1.5"></path><path d="M790.67 823.13L1003.34 819.88" stroke="hsl(0, 0%, 100%)" stroke-width="1.5"></path><path d="M790.67 823.13L973.14 1012.37" stroke="hsl(0, 0%, 100%)" stroke-width="1.5"></path><path d="M951 410.96L951 410.96" stroke="hsl(0, 0%, 100%)" stroke-width="1.5"></path><path d="M951 410.96L1010.91 537.06" stroke="hsl(0, 0%, 100%)" stroke-width="1.5"></path><path d="M951 410.96L1114.5 364.8" stroke="hsl(0, 0%, 100%)" stroke-width="1.5"></path><path d="M951 410.96L1121.76 561.12" stroke="hsl(0, 0%, 100%)" stroke-width="1.5"></path><path d="M951 410.96L1117.88 228.55" stroke="hsl(0, 0%, 100%)" stroke-width="1.5"></path><path d="M1010.91 537.06L1010.91 537.06" stroke="hsl(0, 0%, 100%)" stroke-width="1.5"></path><path d="M1003.34 819.88L1003.34 819.88" stroke="hsl(0, 0%, 100%)" stroke-width="1.5"></path><path d="M1003.34 819.88L1125.98 845.5" stroke="hsl(0, 0%, 100%)" stroke-width="1.5"></path><path d="M1003.34 819.88L1110.39 686" stroke="hsl(0, 0%, 100%)" stroke-width="1.5"></path><path d="M1003.34 819.88L1109.75 977.93" stroke="hsl(0, 0%, 100%)" stroke-width="1.5"></path><path d="M1003.34 819.88L973.14 1012.37" stroke="hsl(0, 0%, 100%)" stroke-width="1.5"></path><path d="M973.14 1012.37L973.14 1012.37" stroke="hsl(0, 0%, 100%)" stroke-width="1.5"></path><path d="M973.14 1012.37L1109.75 977.93" stroke="hsl(0, 0%, 100%)" stroke-width="1.5"></path><path d="M1154.21 -65.68L1154.21 -65.68" stroke="hsl(0, 0%, 100%)" stroke-width="1.5"></path><path d="M1154.21 -65.68L1246.57 -62.67" stroke="hsl(0, 0%, 100%)" stroke-width="1.5"></path><path d="M1154.21 -65.68L1296.9 62.01" stroke="hsl(0, 0%, 100%)" stroke-width="1.5"></path><path d="M1154.21 -65.68L1425.49 -91.97" stroke="hsl(0, 0%, 100%)" stroke-width="1.5"></path><path d="M1154.21 -65.68L1117.88 228.55" stroke="hsl(0, 0%, 100%)" stroke-width="1.5"></path><path d="M1114.5 364.8L1114.5 364.8" stroke="hsl(0, 0%, 100%)" stroke-width="1.5"></path><path d="M1114.5 364.8L1276 387.78" stroke="hsl(0, 0%, 100%)" stroke-width="1.5"></path><path d="M1114.5 364.8L1121.76 561.12" stroke="hsl(0, 0%, 100%)" stroke-width="1.5"></path><path d="M1114.5 364.8L1010.91 537.06" stroke="hsl(0, 0%, 100%)" stroke-width="1.5"></path><path d="M1110.39 686L1110.39 686" stroke="hsl(0, 0%, 100%)" stroke-width="1.5"></path><path d="M1110.39 686L1249.15 648.48" stroke="hsl(0, 0%, 100%)" stroke-width="1.5"></path><path d="M1110.39 686L1125.98 845.5" stroke="hsl(0, 0%, 100%)" stroke-width="1.5"></path><path d="M1110.39 686L1010.91 537.06" stroke="hsl(0, 0%, 100%)" stroke-width="1.5"></path><path d="M1110.39 686L1246.62 844.46" stroke="hsl(0, 0%, 100%)" stroke-width="1.5"></path><path d="M1125.98 845.5L1125.98 845.5" stroke="hsl(0, 0%, 100%)" stroke-width="1.5"></path><path d="M1125.98 845.5L1246.62 844.46" stroke="hsl(0, 0%, 100%)" stroke-width="1.5"></path><path d="M1109.75 977.93L1109.75 977.93" stroke="hsl(0, 0%, 100%)" stroke-width="1.5"></path><path d="M1109.75 977.93L1238.89 961.26" stroke="hsl(0, 0%, 100%)" stroke-width="1.5"></path><path d="M1109.75 977.93L1125.98 845.5" stroke="hsl(0, 0%, 100%)" stroke-width="1.5"></path><path d="M1246.57 -62.67L1246.57 -62.67" stroke="hsl(0, 0%, 100%)" stroke-width="1.5"></path><path d="M1246.57 -62.67L1296.9 62.01" stroke="hsl(0, 0%, 100%)" stroke-width="1.5"></path><path d="M1296.9 62.01L1296.9 62.01" stroke="hsl(0, 0%, 100%)" stroke-width="1.5"></path><path d="M1296.9 62.01L1425.25 99.02" stroke="hsl(0, 0%, 100%)" stroke-width="1.5"></path><path d="M1304.56 244.71L1304.56 244.71" stroke="hsl(0, 0%, 100%)" stroke-width="1.5"></path><path d="M1304.56 244.71L1414.7 204.08" stroke="hsl(0, 0%, 100%)" stroke-width="1.5"></path><path d="M1304.56 244.71L1276 387.78" stroke="hsl(0, 0%, 100%)" stroke-width="1.5"></path><path d="M1304.56 244.71L1296.9 62.01" stroke="hsl(0, 0%, 100%)" stroke-width="1.5"></path><path d="M1304.56 244.71L1425.25 99.02" stroke="hsl(0, 0%, 100%)" stroke-width="1.5"></path><path d="M1276 387.78L1276 387.78" stroke="hsl(0, 0%, 100%)" stroke-width="1.5"></path><path d="M1276 387.78L1278.55 553.52" stroke="hsl(0, 0%, 100%)" stroke-width="1.5"></path><path d="M1278.55 553.52L1278.55 553.52" stroke="hsl(0, 0%, 100%)" stroke-width="1.5"></path><path d="M1278.55 553.52L1249.15 648.48" stroke="hsl(0, 0%, 100%)" stroke-width="1.5"></path><path d="M1278.55 553.52L1121.76 561.12" stroke="hsl(0, 0%, 100%)" stroke-width="1.5"></path><path d="M1278.55 553.52L1440.61 513.7" stroke="hsl(0, 0%, 100%)" stroke-width="1.5"></path><path d="M1278.55 553.52L1110.39 686" stroke="hsl(0, 0%, 100%)" stroke-width="1.5"></path><path d="M1249.15 648.48L1249.15 648.48" stroke="hsl(0, 0%, 100%)" stroke-width="1.5"></path><path d="M1249.15 648.48L1246.62 844.46" stroke="hsl(0, 0%, 100%)" stroke-width="1.5"></path><path d="M1249.15 648.48L1439.41 700.9" stroke="hsl(0, 0%, 100%)" stroke-width="1.5"></path><path d="M1249.15 648.48L1125.98 845.5" stroke="hsl(0, 0%, 100%)" stroke-width="1.5"></path><path d="M1246.62 844.46L1246.62 844.46" stroke="hsl(0, 0%, 100%)" stroke-width="1.5"></path><path d="M1246.62 844.46L1238.89 961.26" stroke="hsl(0, 0%, 100%)" stroke-width="1.5"></path><path d="M1246.62 844.46L1406.32 827.07" stroke="hsl(0, 0%, 100%)" stroke-width="1.5"></path><path d="M1246.62 844.46L1109.75 977.93" stroke="hsl(0, 0%, 100%)" stroke-width="1.5"></path><path d="M1238.89 961.26L1238.89 961.26" stroke="hsl(0, 0%, 100%)" stroke-width="1.5"></path><path d="M1238.89 961.26L1125.98 845.5" stroke="hsl(0, 0%, 100%)" stroke-width="1.5"></path><path d="M1238.89 961.26L1446.13 944.24" stroke="hsl(0, 0%, 100%)" stroke-width="1.5"></path><path d="M1425.49 -91.97L1425.49 -91.97" stroke="hsl(0, 0%, 100%)" stroke-width="1.5"></path><path d="M1425.49 -91.97L1246.57 -62.67" stroke="hsl(0, 0%, 100%)" stroke-width="1.5"></path><path d="M1425.49 -91.97L1425.25 99.02" stroke="hsl(0, 0%, 100%)" stroke-width="1.5"></path><path d="M1425.49 -91.97L1296.9 62.01" stroke="hsl(0, 0%, 100%)" stroke-width="1.5"></path><path d="M1425.49 -91.97L1590.4 112.37" stroke="hsl(0, 0%, 100%)" stroke-width="1.5"></path><path d="M1425.25 99.02L1425.25 99.02" stroke="hsl(0, 0%, 100%)" stroke-width="1.5"></path><path d="M1425.25 99.02L1414.7 204.08" stroke="hsl(0, 0%, 100%)" stroke-width="1.5"></path><path d="M1425.25 99.02L1590.4 112.37" stroke="hsl(0, 0%, 100%)" stroke-width="1.5"></path><path d="M1414.7 204.08L1414.7 204.08" stroke="hsl(0, 0%, 100%)" stroke-width="1.5"></path><path d="M1440.61 513.7L1440.61 513.7" stroke="hsl(0, 0%, 100%)" stroke-width="1.5"></path><path d="M1439.41 700.9L1439.41 700.9" stroke="hsl(0, 0%, 100%)" stroke-width="1.5"></path><path d="M1439.41 700.9L1406.32 827.07" stroke="hsl(0, 0%, 100%)" stroke-width="1.5"></path><path d="M1439.41 700.9L1612 703.28" stroke="hsl(0, 0%, 100%)" stroke-width="1.5"></path><path d="M1439.41 700.9L1440.61 513.7" stroke="hsl(0, 0%, 100%)" stroke-width="1.5"></path><path d="M1439.41 700.9L1580.39 846.42" stroke="hsl(0, 0%, 100%)" stroke-width="1.5"></path><path d="M1439.41 700.9L1278.55 553.52" stroke="hsl(0, 0%, 100%)" stroke-width="1.5"></path><path d="M1406.32 827.07L1406.32 827.07" stroke="hsl(0, 0%, 100%)" stroke-width="1.5"></path><path d="M1406.32 827.07L1446.13 944.24" stroke="hsl(0, 0%, 100%)" stroke-width="1.5"></path><path d="M1406.32 827.07L1580.39 846.42" stroke="hsl(0, 0%, 100%)" stroke-width="1.5"></path><path d="M1406.32 827.07L1559.55 949.62" stroke="hsl(0, 0%, 100%)" stroke-width="1.5"></path><path d="M1446.13 944.24L1446.13 944.24" stroke="hsl(0, 0%, 100%)" stroke-width="1.5"></path><path d="M1446.13 944.24L1559.55 949.62" stroke="hsl(0, 0%, 100%)" stroke-width="1.5"></path><path d="M1446.13 944.24L1580.39 846.42" stroke="hsl(0, 0%, 100%)" stroke-width="1.5"></path><path d="M1446.13 944.24L1246.62 844.46" stroke="hsl(0, 0%, 100%)" stroke-width="1.5"></path><path d="M1590.4 112.37L1590.4 112.37" stroke="hsl(0, 0%, 100%)" stroke-width="1.5"></path><path d="M1590.4 112.37L1606.33 233.34" stroke="hsl(0, 0%, 100%)" stroke-width="1.5"></path><path d="M1590.4 112.37L1414.7 204.08" stroke="hsl(0, 0%, 100%)" stroke-width="1.5"></path><path d="M1606.33 233.34L1606.33 233.34" stroke="hsl(0, 0%, 100%)" stroke-width="1.5"></path><path d="M1606.33 233.34L1557.22 368" stroke="hsl(0, 0%, 100%)" stroke-width="1.5"></path><path d="M1606.33 233.34L1452.64 340.1" stroke="hsl(0, 0%, 100%)" stroke-width="1.5"></path><path d="M1606.33 233.34L1414.7 204.08" stroke="hsl(0, 0%, 100%)" stroke-width="1.5"></path><path d="M1606.33 233.34L1425.25 99.02" stroke="hsl(0, 0%, 100%)" stroke-width="1.5"></path><path d="M1557.22 368L1557.22 368" stroke="hsl(0, 0%, 100%)" stroke-width="1.5"></path><path d="M1557.22 368L1440.61 513.7" stroke="hsl(0, 0%, 100%)" stroke-width="1.5"></path><path d="M1557.22 368L1414.7 204.08" stroke="hsl(0, 0%, 100%)" stroke-width="1.5"></path><path d="M1612 703.28L1612 703.28" stroke="hsl(0, 0%, 100%)" stroke-width="1.5"></path><path d="M1612 703.28L1580.39 846.42" stroke="hsl(0, 0%, 100%)" stroke-width="1.5"></path><path d="M1580.39 846.42L1580.39 846.42" stroke="hsl(0, 0%, 100%)" stroke-width="1.5"></path><path d="M1580.39 846.42L1559.55 949.62" stroke="hsl(0, 0%, 100%)" stroke-width="1.5"></path><path d="M1559.55 949.62L1559.55 949.62" stroke="hsl(0, 0%, 100%)" stroke-width="1.5"></path><circle r="25" cx="191.11" cy="861.31" fill="url(#SvgjsRadialGradient1003)"></circle><circle r="25" cx="1117.88" cy="228.55" fill="url(#SvgjsRadialGradient1003)"></circle><circle r="25" cx="1121.76" cy="561.12" fill="url(#SvgjsRadialGradient1003)"></circle><circle r="25" cx="1452.64" cy="340.1" fill="url(#SvgjsRadialGradient1003)"></circle><circle r="25" cx="1557.58" cy="492.65" fill="url(#SvgjsRadialGradient1003)"></circle><circle r="5" cx="-85.01" cy="809.32" fill="#ffffff"></circle><circle r="5" cx="-65.89" cy="948.42" fill="#ffffff"></circle><circle r="5" cx="37.81" cy="855.85" fill="#ffffff"></circle><circle r="5" cx="107.4" cy="952.39" fill="#ffffff"></circle><circle r="5" cx="222.99" cy="943.14" fill="#ffffff"></circle><circle r="5" cx="358.97" cy="701.56" fill="#ffffff"></circle><circle r="5" cx="344.14" cy="790.99" fill="#ffffff"></circle><circle r="5" cx="394.75" cy="1006.25" fill="#ffffff"></circle><circle r="5" cx="547.83" cy="665.89" fill="#ffffff"></circle><circle r="5" cx="663.1" cy="678.2" fill="#ffffff"></circle><circle r="5" cx="641.81" cy="830.47" fill="#ffffff"></circle><circle r="5" cx="827.55" cy="536.04" fill="#ffffff"></circle><circle r="5" cx="845.1" cy="695.69" fill="#ffffff"></circle><circle r="5" cx="790.67" cy="823.13" fill="#ffffff"></circle><circle r="5" cx="951" cy="410.96" fill="#ffffff"></circle><circle r="5" cx="1010.91" cy="537.06" fill="#ffffff"></circle><circle r="5" cx="1003.34" cy="819.88" fill="#ffffff"></circle><circle r="5" cx="973.14" cy="1012.37" fill="#ffffff"></circle><circle r="5" cx="1154.21" cy="-65.68" fill="#ffffff"></circle><circle r="5" cx="1114.5" cy="364.8" fill="#ffffff"></circle><circle r="5" cx="1110.39" cy="686" fill="#ffffff"></circle><circle r="5" cx="1125.98" cy="845.5" fill="#ffffff"></circle><circle r="5" cx="1109.75" cy="977.93" fill="#ffffff"></circle><circle r="5" cx="1246.57" cy="-62.67" fill="#ffffff"></circle><circle r="5" cx="1296.9" cy="62.01" fill="#ffffff"></circle><circle r="5" cx="1304.56" cy="244.71" fill="#ffffff"></circle><circle r="5" cx="1276" cy="387.78" fill="#ffffff"></circle><circle r="5" cx="1278.55" cy="553.52" fill="#ffffff"></circle><circle r="5" cx="1249.15" cy="648.48" fill="#ffffff"></circle><circle r="5" cx="1246.62" cy="844.46" fill="#ffffff"></circle><circle r="5" cx="1238.89" cy="961.26" fill="#ffffff"></circle><circle r="5" cx="1425.49" cy="-91.97" fill="#ffffff"></circle><circle r="5" cx="1425.25" cy="99.02" fill="#ffffff"></circle><circle r="5" cx="1414.7" cy="204.08" fill="#ffffff"></circle><circle r="5" cx="1440.61" cy="513.7" fill="#ffffff"></circle><circle r="5" cx="1439.41" cy="700.9" fill="#ffffff"></circle><circle r="5" cx="1406.32" cy="827.07" fill="#ffffff"></circle><circle r="5" cx="1446.13" cy="944.24" fill="#ffffff"></circle><circle r="5" cx="1590.4" cy="112.37" fill="#ffffff"></circle><circle r="5" cx="1606.33" cy="233.34" fill="#ffffff"></circle><circle r="5" cx="1557.22" cy="368" fill="#ffffff"></circle><circle r="5" cx="1612" cy="703.28" fill="#ffffff"></circle><circle r="5" cx="1580.39" cy="846.42" fill="#ffffff"></circle><circle r="5" cx="1559.55" cy="949.62" fill="#ffffff"></circle></g><defs><mask id="SvgjsMask1002"><rect width="1440" height="900" fill="#ffffff"></rect></mask><radialGradient id="SvgjsRadialGradient1003"><stop stop-color="#ffffff" offset="0.1"></stop><stop stop-color="rgba(255, 255, 255, 1)" offset="0.2"></stop><stop stop-color="rgba(255, 255, 255, 0)" offset="1"></stop></radialGradient></defs></svg>